<svg xmlns="http://www.w3.org/2000/svg" width="392.862" height="130.447" viewBox="0 0 392.862 130.447">
  <g id="aros-logo" transform="translate(-763.505 -56.793)">
    <g id="Group_1" data-name="Group 1" transform="translate(508 -43)">
      <path id="Path_1" data-name="Path 1" d="M700.505,402.239h19.675l32.227-94.645,34.94,94.645h19.336l-47.492-124.5H745.283Z" transform="translate(-445 -172)" fill="#f2f2f2"/>
      <path id="Path_2" data-name="Path 2" d="M829.412,402.239h15.6l1.1-110.383s39.342-4.416,40.747,12.646S862.571,331.2,863,345.588s33.583,56.651,33.583,56.651h17.3s-35.454-46.477-33.244-56.651,23.486-28.641,22.081-41.086-3.763-23.706-30.9-26.759-42.4,0-42.4,0Z" transform="translate(-445 -172)" fill="#f2f2f2"/>
      <path id="Path_4" data-name="Path 4" d="M1078.5,295.669c.875-.193,4.973-6.4,4.973-6.4l3.056-5.444s-25.131-17.927-48.816-3.274-16.817,32.5-11.2,41.211c1.967,4.633,14.926,14.347,28.6,23.6,2.994,2.025,11.049,6.47,16.324,12.673,4.055,4.767,6.4,10.042,5.785,15.786-1.278,11.334-16.4,17.169-30.937,13.468-4.376-1.114-8.315-3.429-14.557-5.909-.7-1.1-6.515,5.909-6.515,5.909l-3.32,4.73s20.675,18.467,46.769,10.638,24.689-35.729,24.689-35.729.6-18.065-26.5-32.919-27.1-26.5-27.1-26.5S1038.355,280.615,1078.5,295.669Z" transform="translate(-445 -175)" fill="#f2f2f2"/>
      <g id="Ellipse_1" data-name="Ellipse 1" transform="translate(478 162)" fill="none" stroke="#f2f2f2" stroke-width="15">
        <circle cx="34" cy="34" r="34" stroke="none"/>
        <circle cx="34" cy="34" r="26.5" fill="none"/>
      </g>
    </g>
  </g>
</svg>
