<svg xmlns="http://www.w3.org/2000/svg" width="20" height="20" viewBox="0 0 20 20">
  <g id="Group_41" data-name="Group 41" transform="translate(-34 -752)">
    <g id="Group_19" data-name="Group 19" transform="translate(34 752)">
      <g id="Ellipse_14" data-name="Ellipse 14" fill="none" stroke="#fff" stroke-width="2">
        <circle cx="10" cy="10" r="10" stroke="none"/>
        <circle cx="10" cy="10" r="9" fill="none"/>
      </g>
      <path id="Icon_awesome-arrow-left" data-name="Icon awesome-arrow-left" d="M5.5,14.424l.642.642a.691.691,0,0,0,.98,0L12.743,9.45a.691.691,0,0,0,0-.98L7.124,2.851a.691.691,0,0,0-.98,0L5.5,3.493a.694.694,0,0,0,.012.991L9,7.8H.69A.692.692,0,0,0,0,8.5v.925a.692.692,0,0,0,.694.694H9L5.514,13.433A.689.689,0,0,0,5.5,14.424Z" transform="translate(3.497 1.042)" fill="#fff"/>
    </g>
  </g>
</svg>
