<svg xmlns="http://www.w3.org/2000/svg" width="28" height="28" viewBox="0 0 28 28">
  <g id="Group_19" data-name="Group 19" transform="translate(0.055 0.291)">
    <g id="Ellipse_14" data-name="Ellipse 14" transform="translate(-0.055 -0.291)" fill="none" stroke="#fff" stroke-width="2">
      <circle cx="14" cy="14" r="14" stroke="none"/>
      <circle cx="14" cy="14" r="13" fill="none"/>
    </g>
    <path id="Icon_awesome-arrow-left" data-name="Icon awesome-arrow-left" d="M7.441,14.424l-.642.642a.691.691,0,0,1-.98,0L.2,9.45a.691.691,0,0,1,0-.98L5.819,2.851a.691.691,0,0,1,.98,0l.642.642a.694.694,0,0,1-.012.991L3.946,7.8h8.307a.692.692,0,0,1,.694.694v.925a.692.692,0,0,1-.694.694H3.946l3.483,3.318A.689.689,0,0,1,7.441,14.424Z" transform="translate(7.54 4.75)" fill="#fff"/>
  </g>
</svg>
