<svg xmlns="http://www.w3.org/2000/svg" width="28" height="26" viewBox="0 0 28 26">
  <g id="Path_36" data-name="Path 36" transform="translate(0 0)" fill="none">
    <path d="M14,26C6.472,20.809,2.524,16.086.905,12.133-3.432,1.541,8.957-3.525,14,2.728c5.043-6.253,17.432-1.187,13.095,9.405C25.476,16.086,21.528,20.809,14,26Z" stroke="none"/>
    <path d="M 14.00000381469727 23.55418586730957 C 21.29250526428223 18.31083869934082 24.1428279876709 14.06356620788574 25.24399375915527 11.37538623809814 C 26.31397438049316 8.762426376342773 26.24970436096191 6.442795753479004 25.05814361572266 4.667255878448486 C 23.95402336120605 3.022035837173462 21.95951461791992 2.000005960464478 19.85294342041016 2.000005960464478 C 18.11416435241699 2.000005960464478 16.58843421936035 2.704465866088867 15.55679416656494 3.983625888824463 L 14.00000381469727 5.913936138153076 L 12.44321346282959 3.983625888824463 C 11.41158390045166 2.704465866088867 9.885844230651855 2.000005960464478 8.147053718566895 2.000005960464478 C 6.040753841400146 2.000005960464478 4.046353816986084 3.02211594581604 2.942153930664063 4.667456150054932 C 1.750503778457642 6.443115711212158 1.686143755912781 8.762676239013672 2.755923748016357 11.37516593933105 C 3.857174634933472 14.06355571746826 6.707502365112305 18.31083869934082 14.00000381469727 23.55418586730957 M 14.00000381469727 25.99999618530273 C 6.472293853759766 20.80865669250488 2.524303913116455 16.08591651916504 0.9051837921142578 12.13328552246094 C -2.134860515594482 4.709320545196533 3.041948080062866 5.119628895045025e-06 8.14705753326416 5.119628895045025e-06 C 10.32594203948975 5.119628895045025e-06 12.49146556854248 0.8575894236564636 14.00000381469727 2.728075981140137 C 15.5082311630249 0.8579710721969604 17.67451095581055 5.119628895045025e-06 19.85294532775879 5.119628895045025e-06 C 24.95848655700684 5.119628895045025e-06 30.13513374328613 4.70867395401001 27.09482383728027 12.13328552246094 C 25.47570419311523 16.08591651916504 21.52771377563477 20.80865669250488 14.00000381469727 25.99999618530273 Z" stroke="none" fill="#fff"/>
  </g>
</svg>
