<svg id="Warstwa_1" data-name="Warstwa 1" xmlns="http://www.w3.org/2000/svg" viewBox="0 0 32 32"><defs><style>.cls-1{fill:none;}.cls-2{fill:#d2a446;}.cls-3{fill:#f2f2f2;}</style></defs><rect class="cls-1" width="32" height="32"/><path class="cls-2" d="M13,12.07A9.06,9.06,0,1,0,22,21.12,9,9,0,0,0,13,12.07Zm0,15.59a6.54,6.54,0,1,1,6.54-6.54A6.53,6.53,0,0,1,13,27.66Z"/><path id="Path_1" data-name="Path 1" class="cls-3" d="M3.91,30.18H8.39L15.73,8.62l8,21.56h4.4L17.28,1.82H14.11Z"/><path class="cls-2" d="M8.74,29.14l.83-2.44a6.59,6.59,0,0,1-3-4.05L5.38,26.07A9.18,9.18,0,0,0,8.74,29.14Z"/></svg>