<svg xmlns="http://www.w3.org/2000/svg" width="28" height="26" viewBox="0 0 28 26">
  <g id="Path_36" data-name="Path 36" transform="translate(0 0)" fill="#fff">
    <path d="M 14.00000381469727 24.78130531311035 C 10.74279117584229 22.4892520904541 8.044961929321289 20.18527603149414 5.973973751068115 17.92634582519531 C 4.036643981933594 15.81320571899414 2.642593860626221 13.73659610748291 1.830553770065308 11.754225730896 C 0.3119338154792786 8.045665740966797 1.145283818244934 5.550415992736816 2.111803770065308 4.11021614074707 C 3.399283885955811 2.191766023635864 5.711853981018066 1.000005960464478 8.147053718566895 1.000005960464478 C 10.1942138671875 1.000005960464478 11.99639415740967 1.836655974388123 13.22160339355469 3.355845928192139 L 14.00000381469727 4.321005821228027 L 14.77840423583984 3.355845928192139 C 16.00361442565918 1.836655974388123 17.80579376220703 1.000005960464478 19.85294342041016 1.000005960464478 C 22.28841400146484 1.000005960464478 24.60109329223633 2.191685914993286 25.88848304748535 4.110005855560303 C 26.85495376586914 5.550116062164307 27.68820381164551 8.04533576965332 26.16940307617188 11.7543363571167 C 25.35741424560547 13.73659610748291 23.96336364746094 15.81320571899414 22.02603340148926 17.92634582519531 C 19.95504570007324 20.18527603149414 17.25721549987793 22.4892520904541 14.00000381469727 24.78130531311035 Z" stroke="none"/>
    <path d="M 14.00000381469727 23.55418586730957 C 21.29250526428223 18.31083869934082 24.1428279876709 14.06356620788574 25.24399375915527 11.37538623809814 C 26.31397438049316 8.762426376342773 26.24970436096191 6.442795753479004 25.05814361572266 4.667255878448486 C 23.95402336120605 3.022035837173462 21.95951461791992 2.000005960464478 19.85294342041016 2.000005960464478 C 18.11416435241699 2.000005960464478 16.58843421936035 2.704465866088867 15.55679416656494 3.983625888824463 L 14.00000381469727 5.913936138153076 L 12.44321346282959 3.983625888824463 C 11.41158390045166 2.704465866088867 9.885844230651855 2.000005960464478 8.147053718566895 2.000005960464478 C 6.040753841400146 2.000005960464478 4.046353816986084 3.02211594581604 2.942153930664063 4.667456150054932 C 1.750503778457642 6.443115711212158 1.686143755912781 8.762676239013672 2.755923748016357 11.37516593933105 C 3.857174634933472 14.06355571746826 6.707502365112305 18.31083869934082 14.00000381469727 23.55418586730957 M 14.00000381469727 25.99999618530273 C 6.472293853759766 20.80865669250488 2.524303913116455 16.08591651916504 0.9051837921142578 12.13328552246094 C -2.134860515594482 4.709320545196533 3.041948080062866 5.119628895045025e-06 8.14705753326416 5.119628895045025e-06 C 10.32594203948975 5.119628895045025e-06 12.49146556854248 0.8575894236564636 14.00000381469727 2.728075981140137 C 15.5082311630249 0.8579710721969604 17.67451095581055 5.119628895045025e-06 19.85294532775879 5.119628895045025e-06 C 24.95848655700684 5.119628895045025e-06 30.13513374328613 4.70867395401001 27.09482383728027 12.13328552246094 C 25.47570419311523 16.08591651916504 21.52771377563477 20.80865669250488 14.00000381469727 25.99999618530273 Z" stroke="none" fill="#fff"/>
  </g>
</svg>
