<svg xmlns="http://www.w3.org/2000/svg" width="26.01" height="23.781" viewBox="0 0 26.01 23.781">
  <path id="Subtraction_8" data-name="Subtraction 8" d="M14,24.781h0a49.759,49.759,0,0,1-8.026-6.855,21.417,21.417,0,0,1-4.144-6.172c-1.518-3.708-.685-6.2.281-7.644A7.3,7.3,0,0,1,8.147,1a6.376,6.376,0,0,1,5.075,2.356L14,4.321l.778-.965A6.376,6.376,0,0,1,19.853,1a7.3,7.3,0,0,1,6.035,3.11c.967,1.44,1.8,3.935.281,7.644a21.417,21.417,0,0,1-4.144,6.172A49.788,49.788,0,0,1,14,24.781Zm.1-11.463h0L18.977,18.2l1.219-1.22L15.318,12.1,20.2,7.22,18.977,6,14.1,10.879,9.22,6,8,7.22,12.879,12.1,8,16.978,9.22,18.2,14.1,13.319Z" transform="translate(-0.995 -1)" fill="#fff"/>
</svg>
