<svg xmlns="http://www.w3.org/2000/svg" width="42.517" height="206.912" viewBox="0 0 42.517 206.912">
  <g id="kunste-logo" transform="translate(476.847 -272.224) rotate(90)">
    <path id="Subtraction_2" data-name="Subtraction 2" d="M9.34.9H-.054V41.584H9.34V23.528L23.919,41.584H36L18.246,20.173,34.716.9H23.248L9.34,17.855ZM37.888,14.378V30.787c0,2.989.488,5.734,2.989,8.174,3.111,3.05,7.625,3.538,10.98,3.538,3.233,0,7.808-.488,10.919-3.538,2.745-2.684,3.05-5.612,3.05-8.723V14.378H57.042V29.384a5.921,5.921,0,0,1-1.464,4.392,5.445,5.445,0,0,1-3.721,1.281,5.179,5.179,0,0,1-3.66-1.281,5.729,5.729,0,0,1-1.525-4.392V14.378Zm45.2,27.206V15.232l22.082,26.352h8.174V.9h-9.394v26.23L81.869.9H73.695V41.584ZM147.444,4.008A19.666,19.666,0,0,0,135.366-.018c-3.782,0-7.2.793-10.065,3.721a12.507,12.507,0,0,0-3.538,9.15,10,10,0,0,0,2.44,7.076,13.7,13.7,0,0,0,5.673,3.233l3.355,1.159a19.871,19.871,0,0,1,4.758,2.257,3.588,3.588,0,0,1,1.4,2.928,4.21,4.21,0,0,1-1.464,3.294,6.5,6.5,0,0,1-4.27,1.4,9.452,9.452,0,0,1-5.124-1.464,24.911,24.911,0,0,1-3.782-3.111l-4.88,6.71a25.879,25.879,0,0,0,5.978,4.453A17.241,17.241,0,0,0,133.9,42.5c2.684,0,7.93-.366,11.529-4.148a14.582,14.582,0,0,0,3.6-10.065,10.147,10.147,0,0,0-2.989-7.564,16.317,16.317,0,0,0-5.551-3.111l-3.05-1.159c-2.745-1.037-4.148-1.4-5.124-2.318a2.854,2.854,0,0,1-.915-2.257,3.639,3.639,0,0,1,1.037-2.562,5.088,5.088,0,0,1,3.965-1.4,9.909,9.909,0,0,1,6.832,2.928ZM178.92,8.827V.9H151.836v7.93h8.845V41.584h9.394V8.827ZM206.857.9h-23V41.584h23v-7.93h-13.6V24.626h12.932V16.7H193.255V8.827h13.6Z" transform="translate(272.278 434.348)" fill="#f2f2f2"/>
    <rect id="Rectangle_84" data-name="Rectangle 84" width="9" height="9" transform="translate(310.199 436)" fill="#f2f2f2"/>
    <rect id="Rectangle_85" data-name="Rectangle 85" width="9" height="9" transform="translate(329.258 436)" fill="#f2f2f2"/>
  </g>
</svg>
