<svg xmlns="http://www.w3.org/2000/svg" width="28.63" height="25.448" viewBox="0 0 28.63 25.448">
  <path id="Icon_awesome-map-marked-alt" data-name="Icon awesome-map-marked-alt" d="M14.315,0A6.263,6.263,0,0,0,8.052,6.263c0,2.8,4.093,7.893,5.661,9.743a.784.784,0,0,0,1.2,0c1.568-1.85,5.661-6.947,5.661-9.743A6.263,6.263,0,0,0,14.315,0Zm0,8.35A2.088,2.088,0,1,1,16.4,6.263,2.087,2.087,0,0,1,14.315,8.35ZM1,10.734A1.591,1.591,0,0,0,0,12.21V24.652a.8.8,0,0,0,1.091.739l6.862-3.123V10.682A15.052,15.052,0,0,1,6.9,8.375Zm13.315,7.143a2.375,2.375,0,0,1-1.815-.843c-.977-1.153-2.016-2.466-2.957-3.813v9.046l9.543,3.181V13.221c-.94,1.346-1.979,2.66-2.957,3.813A2.376,2.376,0,0,1,14.315,17.877ZM27.539,8.01l-6.862,3.123V25.448l6.953-2.781a1.59,1.59,0,0,0,1-1.477V8.749A.8.8,0,0,0,27.539,8.01Z" fill="#fff"/>
</svg>
